COMMENT vga
STARTFONT 2.1
FONT vga
SIZE 16 75 75
FONTBOUNDINGBOX 8 16 0 -4
STARTPROPERTIES 3
FONT_DESCENT 4
FONT_ASCENT 12
AVERAGE_WIDTH 80
DEFAULT_CHAR 0
ENDPROPERTIES
CHARS 256
STARTCHAR u1EBF
ENCODING 7871
SWIDTH 666 0
DWIDTH 8 0
BBX 8 16 0 -4
BITMAP
00
00
03
02
14
38
44
00
7C
C6
FE
C0
C6
7C
00
00
ENDCHAR
STARTCHAR u007F
ENCODING 127
SWIDTH 666 0
DWIDTH 8 0
BBX 8 16 0 -4
BITMAP
00
00
00
00
00
00
00
10
38
6C
C6
C6
FE
00
00
00
ENDCHAR
STARTCHAR u0020
ENCODING 32
SWIDTH 666 0
DWIDTH 8 0
BBX 8 16 0 -4
BITMAP
00
00
00
00
00
00
00
00
00
00
00
00
00
00
00
00
ENDCHAR
STARTCHAR u005A
ENCODING 90
SWIDTH 666 0
DWIDTH 8 0
BBX 8 16 0 -4
BITMAP
00
00
00
00
00
FE
C6
8C
18
30
60
C2
C6
FE
00
00
ENDCHAR
STARTCHAR u0076
ENCODING 118
SWIDTH 666 0
DWIDTH 8 0
BBX 8 16 0 -4
BITMAP
00
00
00
00
00
00
00
00
66
66
66
66
3C
18
00
00
ENDCHAR
STARTCHAR u0047
ENCODING 71
SWIDTH 666 0
DWIDTH 8 0
BBX 8 16 0 -4
BITMAP
00
00
00
00
00
3C
66
C2
C0
C0
DE
C6
66
3A
00
00
ENDCHAR
STARTCHAR u0066
ENCODING 102
SWIDTH 666 0
DWIDTH 8 0
BBX 8 16 0 -4
BITMAP
00
00
00
00
00
38
6C
64
60
F0
60
60
60
F0
00
00
ENDCHAR
STARTCHAR u1EC6
ENCODING 7878
SWIDTH 666 0
DWIDTH 8 0
BBX 8 16 0 -4
BITMAP
00
00
10
38
44
FE
62
62
68
78
68
62
62
FE
00
18
ENDCHAR
STARTCHAR u0010
ENCODING 16
SWIDTH 666 0
DWIDTH 8 0
BBX 8 16 0 -4
BITMAP
00
00
00
00
00
40
60
70
7C
7F
7C
70
60
40
00
00
ENDCHAR
STARTCHAR u0037
ENCODING 55
SWIDTH 666 0
DWIDTH 8 0
BBX 8 16 0 -4
BITMAP
00
00
00
00
00
FE
C6
06
0C
18
30
30
30
30
00
00
ENDCHAR
STARTCHAR u1EC5
ENCODING 7877
SWIDTH 666 0
DWIDTH 8 0
BBX 8 16 0 -4
BITMAP
00
00
32
4C
10
38
44
00
7C
C6
FE
C0
C6
7C
00
00
ENDCHAR
STARTCHAR u0054
ENCODING 84
SWIDTH 666 0
DWIDTH 8 0
BBX 8 16 0 -4
BITMAP
00
00
00
00
00
7E
7E
5A
18
18
18
18
18
3C
00
00
ENDCHAR
STARTCHAR u00E9
ENCODING 233
SWIDTH 666 0
DWIDTH 8 0
BBX 8 16 0 -4
BITMAP
00
00
00
00
0C
08
10
00
7C
C6
FE
C0
C6
7C
00
00
ENDCHAR
STARTCHAR u0103
ENCODING 259
SWIDTH 666 0
DWIDTH 8 0
BBX 8 16 0 -4
BITMAP
00
00
00
00
00
44
38
00
78
0C
7C
CC
CC
76
00
00
ENDCHAR
STARTCHAR u00C2
ENCODING 194
SWIDTH 666 0
DWIDTH 8 0
BBX 8 16 0 -4
BITMAP
00
00
10
38
44
10
38
6C
C6
C6
FE
C6
C6
C6
00
00
ENDCHAR
STARTCHAR u0039
ENCODING 57
SWIDTH 666 0
DWIDTH 8 0
BBX 8 16 0 -4
BITMAP
00
00
00
00
00
7C
C6
C6
C6
7E
06
06
0C
78
00
00
ENDCHAR
STARTCHAR u1ED0
ENCODING 7888
SWIDTH 666 0
DWIDTH 8 0
BBX 8 16 0 -4
BITMAP
00
03
12
3C
44
7C
C6
C6
C6
C6
C6
C6
C6
7C
00
00
ENDCHAR
STARTCHAR u1EC1
ENCODING 7873
SWIDTH 666 0
DWIDTH 8 0
BBX 8 16 0 -4
BITMAP
00
00
0C
04
12
38
44
00
7C
C6
FE
C0
C6
7C
00
00
ENDCHAR
STARTCHAR u0059
ENCODING 89
SWIDTH 666 0
DWIDTH 8 0
BBX 8 16 0 -4
BITMAP
00
00
00
00
00
66
66
66
66
3C
18
18
18
3C
00
00
ENDCHAR
STARTCHAR u1EDA
ENCODING 7898
SWIDTH 666 0
DWIDTH 8 0
BBX 8 16 0 -4
BITMAP
00
0C
08
13
01
7E
C6
C6
C6
C6
C6
C6
C6
7C
00
00
ENDCHAR
STARTCHAR u1EBA
ENCODING 7866
SWIDTH 666 0
DWIDTH 8 0
BBX 8 16 0 -4
BITMAP
00
1C
04
08
00
FE
66
62
68
78
68
62
66
FE
00
00
ENDCHAR
STARTCHAR u001F
ENCODING 31
SWIDTH 666 0
DWIDTH 8 0
BBX 8 16 0 -4
BITMAP
00
00
00
00
00
18
3C
7E
FF
FF
7E
18
18
3C
00
00
ENDCHAR
STARTCHAR u0023
ENCODING 35
SWIDTH 666 0
DWIDTH 8 0
BBX 8 16 0 -4
BITMAP
00
00
00
00
00
6C
6C
FE
6C
6C
6C
FE
6C
6C
00
00
ENDCHAR
STARTCHAR u1EB6
ENCODING 7862
SWIDTH 666 0
DWIDTH 8 0
BBX 8 16 0 -4
BITMAP
00
00
00
44
38
10
38
6C
C6
C6
FE
C6
C6
C6
00
18
ENDCHAR
STARTCHAR u000B
ENCODING 11
SWIDTH 666 0
DWIDTH 8 0
BBX 8 16 0 -4
BITMAP
00
00
00
00
00
1E
0E
1A
32
78
CC
CC
CC
78
00
00
ENDCHAR
STARTCHAR u1EF1
ENCODING 7921
SWIDTH 666 0
DWIDTH 8 0
BBX 8 16 0 -4
BITMAP
00
00
00
00
00
00
03
01
CE
CC
CC
CC
CC
76
00
18
ENDCHAR
STARTCHAR u005D
ENCODING 93
SWIDTH 666 0
DWIDTH 8 0
BBX 8 16 0 -4
BITMAP
00
00
00
00
00
3C
0C
0C
0C
0C
0C
0C
0C
3C
00
00
ENDCHAR
STARTCHAR u1ED7
ENCODING 7895
SWIDTH 666 0
DWIDTH 8 0
BBX 8 16 0 -4
BITMAP
00
00
32
4C
10
38
44
00
7C
C6
C6
C6
C6
7C
00
00
ENDCHAR
STARTCHAR u1ECB
ENCODING 7883
SWIDTH 666 0
DWIDTH 8 0
BBX 8 16 0 -4
BITMAP
00
00
00
00
00
00
18
00
38
18
18
18
18
3C
00
18
ENDCHAR
STARTCHAR u001D
ENCODING 29
SWIDTH 666 0
DWIDTH 8 0
BBX 8 16 0 -4
BITMAP
00
00
00
00
00
00
00
28
6C
FE
6C
28
00
00
00
00
ENDCHAR
STARTCHAR u0072
ENCODING 114
SWIDTH 666 0
DWIDTH 8 0
BBX 8 16 0 -4
BITMAP
00
00
00
00
00
00
00
00
DC
76
66
60
60
F0
00
00
ENDCHAR
STARTCHAR u00E2
ENCODING 226
SWIDTH 666 0
DWIDTH 8 0
BBX 8 16 0 -4
BITMAP
00
00
00
00
10
38
44
00
78
0C
7C
CC
CC
76
00
00
ENDCHAR
STARTCHAR u003A
ENCODING 58
SWIDTH 666 0
DWIDTH 8 0
BBX 8 16 0 -4
BITMAP
00
00
00
00
00
00
18
18
00
00
00
18
18
00
00
00
ENDCHAR
STARTCHAR u00D3
ENCODING 211
SWIDTH 666 0
DWIDTH 8 0
BBX 8 16 0 -4
BITMAP
00
06
04
08
00
7C
C6
C6
C6
C6
C6
C6
C6
7C
00
00
ENDCHAR
STARTCHAR u000F
ENCODING 15
SWIDTH 666 0
DWIDTH 8 0
BBX 8 16 0 -4
BITMAP
00
00
00
00
18
18
18
7E
3C
FF
3C
7E
18
18
00
00
ENDCHAR
STARTCHAR u01AF
ENCODING 431
SWIDTH 666 0
DWIDTH 8 0
BBX 8 16 0 -4
BITMAP
00
00
00
07
01
C6
C6
C6
C6
C6
C6
C6
C6
7C
00
00
ENDCHAR
STARTCHAR u0065
ENCODING 101
SWIDTH 666 0
DWIDTH 8 0
BBX 8 16 0 -4
BITMAP
00
00
00
00
00
00
00
00
7C
C6
FE
C0
C6
7C
00
00
ENDCHAR
STARTCHAR u0049
ENCODING 73
SWIDTH 666 0
DWIDTH 8 0
BBX 8 16 0 -4
BITMAP
00
00
00
00
00
3C
18
18
18
18
18
18
18
3C
00
00
ENDCHAR
STARTCHAR u004C
ENCODING 76
SWIDTH 666 0
DWIDTH 8 0
BBX 8 16 0 -4
BITMAP
00
00
00
00
00
F0
60
60
60
60
60
62
66
FE
00
00
ENDCHAR
STARTCHAR u003E
ENCODING 62
SWIDTH 666 0
DWIDTH 8 0
BBX 8 16 0 -4
BITMAP
00
00
00
00
00
60
30
18
0C
06
0C
18
30
60
00
00
ENDCHAR
STARTCHAR u1ECE
ENCODING 7886
SWIDTH 666 0
DWIDTH 8 0
BBX 8 16 0 -4
BITMAP
00
0E
02
04
00
7C
C6
C6
C6
C6
C6
C6
C6
7C
00
00
ENDCHAR
STARTCHAR u1EB2
ENCODING 7858
SWIDTH 666 0
DWIDTH 8 0
BBX 8 16 0 -4
BITMAP
00
38
08
54
38
10
38
6C
C6
C6
FE
C6
C6
C6
00
00
ENDCHAR
STARTCHAR u0043
ENCODING 67
SWIDTH 666 0
DWIDTH 8 0
BBX 8 16 0 -4
BITMAP
00
00
00
00
00
3C
66
C2
C0
C0
C0
C2
66
3C
00
00
ENDCHAR
STARTCHAR u1ED4
ENCODING 7892
SWIDTH 666 0
DWIDTH 8 0
BBX 8 16 0 -4
BITMAP
00
07
11
3A
44
7C
C6
C6
C6
C6
C6
C6
C6
7C
00
00
ENDCHAR
STARTCHAR u0111
ENCODING 273
SWIDTH 666 0
DWIDTH 8 0
BBX 8 16 0 -4
BITMAP
00
00
00
00
00
0C
3E
0C
3C
6C
CC
CC
CC
76
00
00
ENDCHAR
STARTCHAR u00EC
ENCODING 236
SWIDTH 666 0
DWIDTH 8 0
BBX 8 16 0 -4
BITMAP
00
00
00
0C
04
02
18
00
38
18
18
18
18
3C
00
00
ENDCHAR
STARTCHAR u0169
ENCODING 361
SWIDTH 666 0
DWIDTH 8 0
BBX 8 16 0 -4
BITMAP
00
00
00
00
00
32
4C
00
CC
CC
CC
CC
CC
76
00
00
ENDCHAR
STARTCHAR u00F9
ENCODING 249
SWIDTH 666 0
DWIDTH 8 0
BBX 8 16 0 -4
BITMAP
00
00
00
00
30
10
08
00
CC
CC
CC
CC
CC
76
00
00
ENDCHAR
STARTCHAR u00DA
ENCODING 218
SWIDTH 666 0
DWIDTH 8 0
BBX 8 16 0 -4
BITMAP
00
00
0C
08
10
C6
C6
C6
C6
C6
C6
C6
C6
7C
00
00
ENDCHAR
STARTCHAR u00CA
ENCODING 202
SWIDTH 666 0
DWIDTH 8 0
BBX 8 16 0 -4
BITMAP
00
00
10
38
44
FE
62
62
68
78
68
62
62
FE
00
00
ENDCHAR
STARTCHAR u000E
ENCODING 14
SWIDTH 666 0
DWIDTH 8 0
BBX 8 16 0 -4
BITMAP
FF
FF
FF
00
00
FF
FF
00
00
FF
FF
00
00
FF
FF
FF
ENDCHAR
STARTCHAR u1EE3
ENCODING 7907
SWIDTH 666 0
DWIDTH 8 0
BBX 8 16 0 -4
BITMAP
00
00
00
00
00
00
07
01
7E
C6
C6
C6
C6
7C
00
18
ENDCHAR
STARTCHAR u0031
ENCODING 49
SWIDTH 666 0
DWIDTH 8 0
BBX 8 16 0 -4
BITMAP
00
00
00
00
00
18
38
78
18
18
18
18
18
7E
00
00
ENDCHAR
STARTCHAR u0018
ENCODING 24
SWIDTH 666 0
DWIDTH 8 0
BBX 8 16 0 -4
BITMAP
00
00
00
00
00
18
3C
7E
18
18
18
18
18
18
00
00
ENDCHAR
STARTCHAR u007C
ENCODING 124
SWIDTH 666 0
DWIDTH 8 0
BBX 8 16 0 -4
BITMAP
00
00
00
00
00
18
18
18
18
00
18
18
18
18
00
00
ENDCHAR
STARTCHAR u0068
ENCODING 104
SWIDTH 666 0
DWIDTH 8 0
BBX 8 16 0 -4
BITMAP
00
00
00
00
00
E0
60
60
6C
76
66
66
66
E6
00
00
ENDCHAR
STARTCHAR u1EF3
ENCODING 7923
SWIDTH 666 0
DWIDTH 8 0
BBX 8 16 0 -4
BITMAP
00
00
00
00
60
20
10
00
C6
C6
C6
C6
7E
06
0C
F8
ENDCHAR
STARTCHAR u00EA
ENCODING 234
SWIDTH 666 0
DWIDTH 8 0
BBX 8 16 0 -4
BITMAP
00
00
00
00
10
38
44
00
7C
C6
FE
C0
C6
7C
00
00
ENDCHAR
STARTCHAR u1EBB
ENCODING 7867
SWIDTH 666 0
DWIDTH 8 0
BBX 8 16 0 -4
BITMAP
00
00
00
00
1C
04
08
00
7C
C6
FE
C0
C6
7C
00
00
ENDCHAR
STARTCHAR u1EEC
ENCODING 7916
SWIDTH 666 0
DWIDTH 8 0
BBX 8 16 0 -4
BITMAP
00
38
08
13
01
C6
C6
C6
C6
C6
C6
C6
C6
7C
00
00
ENDCHAR
STARTCHAR u0000
ENCODING 0
SWIDTH 666 0
DWIDTH 8 0
BBX 8 16 0 -4
BITMAP
00
00
00
00
00
00
00
00
00
00
00
00
00
00
00
00
ENDCHAR
STARTCHAR u0017
ENCODING 23
SWIDTH 666 0
DWIDTH 8 0
BBX 8 16 0 -4
BITMAP
00
00
00
00
00
18
3C
7E
18
18
18
7E
3C
18
7E
00
ENDCHAR
STARTCHAR u0060
ENCODING 96
SWIDTH 666 0
DWIDTH 8 0
BBX 8 16 0 -4
BITMAP
00
00
00
60
60
60
30
00
00
00
00
00
00
00
00
00
ENDCHAR
STARTCHAR u002F
ENCODING 47
SWIDTH 666 0
DWIDTH 8 0
BBX 8 16 0 -4
BITMAP
00
00
00
00
00
02
06
0C
18
30
60
C0
80
00
00
00
ENDCHAR
STARTCHAR u0008
ENCODING 8
SWIDTH 666 0
DWIDTH 8 0
BBX 8 16 0 -4
BITMAP
00
00
00
FF
FF
FF
FF
FF
E7
C3
C3
E7
FF
FF
FF
FF
ENDCHAR
STARTCHAR u0062
ENCODING 98
SWIDTH 666 0
DWIDTH 8 0
BBX 8 16 0 -4
BITMAP
00
00
00
00
00
E0
60
60
78
6C
66
66
66
7C
00
00
ENDCHAR
STARTCHAR u1EF6
ENCODING 7926
SWIDTH 666 0
DWIDTH 8 0
BBX 8 16 0 -4
BITMAP
00
00
1C
04
08
66
66
66
66
3C
18
18
18
3C
00
00
ENDCHAR
STARTCHAR u0025
ENCODING 37
SWIDTH 666 0
DWIDTH 8 0
BBX 8 16 0 -4
BITMAP
00
00
00
00
00
00
00
C2
C6
0C
18
30
66
C6
00
00
ENDCHAR
STARTCHAR u002B
ENCODING 43
SWIDTH 666 0
DWIDTH 8 0
BBX 8 16 0 -4
BITMAP
00
00
00
00
00
00
00
18
18
7E
18
18
00
00
00
00
ENDCHAR
STARTCHAR u00C3
ENCODING 195
SWIDTH 666 0
DWIDTH 8 0
BBX 8 16 0 -4
BITMAP
00
00
32
4C
00
10
38
6C
C6
C6
FE
C6
C6
C6
00
00
ENDCHAR
STARTCHAR u1ECF
ENCODING 7887
SWIDTH 666 0
DWIDTH 8 0
BBX 8 16 0 -4
BITMAP
00
00
00
00
38
08
10
00
7C
C6
C6
C6
C6
7C
00
00
ENDCHAR
STARTCHAR u0015
ENCODING 21
SWIDTH 666 0
DWIDTH 8 0
BBX 8 16 0 -4
BITMAP
00
00
00
00
7C
C6
60
38
6C
C6
C6
6C
38
0C
C6
7C
ENDCHAR
STARTCHAR u00C1
ENCODING 193
SWIDTH 666 0
DWIDTH 8 0
BBX 8 16 0 -4
BITMAP
00
00
03
02
04
10
38
6C
C6
C6
FE
C6
C6
C6
00
00
ENDCHAR
STARTCHAR u0077
ENCODING 119
SWIDTH 666 0
DWIDTH 8 0
BBX 8 16 0 -4
BITMAP
00
00
00
00
00
00
00
00
C6
C6
D6
D6
FE
6C
00
00
ENDCHAR
STARTCHAR u00F4
ENCODING 244
SWIDTH 666 0
DWIDTH 8 0
BBX 8 16 0 -4
BITMAP
00
00
00
00
10
38
44
00
7C
C6
C6
C6
C6
7C
00
00
ENDCHAR
STARTCHAR u1EC4
ENCODING 7876
SWIDTH 666 0
DWIDTH 8 0
BBX 8 16 0 -4
BITMAP
32
4C
10
38
44
FE
62
62
68
78
68
62
62
FE
00
00
ENDCHAR
STARTCHAR u1EB3
ENCODING 7859
SWIDTH 666 0
DWIDTH 8 0
BBX 8 16 0 -4
BITMAP
00
00
38
08
10
44
38
00
78
0C
7C
CC
CC
76
00
00
ENDCHAR
STARTCHAR u1EF0
ENCODING 7920
SWIDTH 666 0
DWIDTH 8 0
BBX 8 16 0 -4
BITMAP
00
00
00
07
01
C6
C6
C6
C6
C6
C6
C6
C6
7C
00
18
ENDCHAR
STARTCHAR u004A
ENCODING 74
SWIDTH 666 0
DWIDTH 8 0
BBX 8 16 0 -4
BITMAP
00
00
00
00
00
1E
0C
0C
0C
0C
0C
CC
CC
78
00
00
ENDCHAR
STARTCHAR u1EEA
ENCODING 7914
SWIDTH 666 0
DWIDTH 8 0
BBX 8 16 0 -4
BITMAP
00
60
20
17
01
C6
C6
C6
C6
C6
C6
C6
C6
7C
00
00
ENDCHAR
STARTCHAR u003D
ENCODING 61
SWIDTH 666 0
DWIDTH 8 0
BBX 8 16 0 -4
BITMAP
00
00
00
00
00
00
00
00
7E
00
00
7E
00
00
00
00
ENDCHAR
STARTCHAR u0073
ENCODING 115
SWIDTH 666 0
DWIDTH 8 0
BBX 8 16 0 -4
BITMAP
00
00
00
00
00
00
00
00
7C
C6
70
1C
C6
7C
00
00
ENDCHAR
STARTCHAR u1EBE
ENCODING 7870
SWIDTH 666 0
DWIDTH 8 0
BBX 8 16 0 -4
BITMAP
00
03
12
3C
44
FE
62
62
68
78
68
62
62
FE
00
00
ENDCHAR
STARTCHAR u0067
ENCODING 103
SWIDTH 666 0
DWIDTH 8 0
BBX 8 16 0 -4
BITMAP
00
00
00
00
00
00
00
00
76
CC
CC
CC
7C
0C
CC
78
ENDCHAR
STARTCHAR u00C9
ENCODING 201
SWIDTH 666 0
DWIDTH 8 0
BBX 8 16 0 -4
BITMAP
00
00
06
04
08
FE
66
62
68
78
68
62
62
FE
00
00
ENDCHAR
STARTCHAR u1EED
ENCODING 7917
SWIDTH 666 0
DWIDTH 8 0
BBX 8 16 0 -4
BITMAP
00
00
00
38
08
10
03
01
CE
CC
CC
CC
CC
76
00
00
ENDCHAR
STARTCHAR u1EBD
ENCODING 7869
SWIDTH 666 0
DWIDTH 8 0
BBX 8 16 0 -4
BITMAP
00
00
00
00
32
4C
00
00
7C
C6
FE
C0
C6
7C
00
00
ENDCHAR
STARTCHAR u0071
ENCODING 113
SWIDTH 666 0
DWIDTH 8 0
BBX 8 16 0 -4
BITMAP
00
00
00
00
00
00
00
00
76
CC
CC
CC
7C
0C
0C
1E
ENDCHAR
STARTCHAR u1EAB
ENCODING 7851
SWIDTH 666 0
DWIDTH 8 0
BBX 8 16 0 -4
BITMAP
00
00
32
4C
10
38
44
00
78
0C
7C
CC
CC
76
00
00
ENDCHAR
STARTCHAR u005B
ENCODING 91
SWIDTH 666 0
DWIDTH 8 0
BBX 8 16 0 -4
BITMAP
00
00
00
00
00
3C
30
30
30
30
30
30
30
3C
00
00
ENDCHAR
STARTCHAR u006B
ENCODING 107
SWIDTH 666 0
DWIDTH 8 0
BBX 8 16 0 -4
BITMAP
00
00
00
00
00
E0
60
60
66
6C
78
6C
66
E6
00
00
ENDCHAR
STARTCHAR u1ECC
ENCODING 7884
SWIDTH 666 0
DWIDTH 8 0
BBX 8 16 0 -4
BITMAP
00
00
00
00
00
7C
C6
C6
C6
C6
C6
C6
C6
7C
00
18
ENDCHAR
STARTCHAR u0057
ENCODING 87
SWIDTH 666 0
DWIDTH 8 0
BBX 8 16 0 -4
BITMAP
00
00
00
00
00
C6
C6
C6
C6
D6
D6
FE
7C
6C
00
00
ENDCHAR
STARTCHAR u1EA3
ENCODING 7843
SWIDTH 666 0
DWIDTH 8 0
BBX 8 16 0 -4
BITMAP
00
00
00
00
1C
04
08
00
78
0C
7C
CC
CC
76
00
00
ENDCHAR
STARTCHAR u004D
ENCODING 77
SWIDTH 666 0
DWIDTH 8 0
BBX 8 16 0 -4
BITMAP
00
00
00
00
00
C6
EE
FE
FE
D6
C6
C6
C6
C6
00
00
ENDCHAR
STARTCHAR u1EE7
ENCODING 7911
SWIDTH 666 0
DWIDTH 8 0
BBX 8 16 0 -4
BITMAP
00
00
00
00
38
08
10
00
CC
CC
CC
CC
CC
76
00
00
ENDCHAR
STARTCHAR u00DD
ENCODING 221
SWIDTH 666 0
DWIDTH 8 0
BBX 8 16 0 -4
BITMAP
00
06
04
08
00
66
66
66
66
3C
18
18
18
3C
00
00
ENDCHAR
STARTCHAR u0027
ENCODING 39
SWIDTH 666 0
DWIDTH 8 0
BBX 8 16 0 -4
BITMAP
00
00
00
00
30
30
30
60
00
00
00
00
00
00
00
00
ENDCHAR
STARTCHAR u1EF8
ENCODING 7928
SWIDTH 666 0
DWIDTH 8 0
BBX 8 16 0 -4
BITMAP
00
00
32
4C
00
66
66
66
66
3C
18
18
18
3C
00
00
ENDCHAR
STARTCHAR u0040
ENCODING 64
SWIDTH 666 0
DWIDTH 8 0
BBX 8 16 0 -4
BITMAP
00
00
00
00
00
7C
C6
C6
DE
DE
DE
DC
C0
7C
00
00
ENDCHAR
STARTCHAR u0061
ENCODING 97
SWIDTH 666 0
DWIDTH 8 0
BBX 8 16 0 -4
BITMAP
00
00
00
00
00
00
00
00
78
0C
7C
CC
CC
76
00
00
ENDCHAR
STARTCHAR u01A1
ENCODING 417
SWIDTH 666 0
DWIDTH 8 0
BBX 8 16 0 -4
BITMAP
00
00
00
00
00
00
07
01
7E
C6
C6
C6
C6
7C
00
00
ENDCHAR
STARTCHAR u000C
ENCODING 12
SWIDTH 666 0
DWIDTH 8 0
BBX 8 16 0 -4
BITMAP
00
00
00
00
00
3C
66
66
66
3C
18
7E
18
18
00
00
ENDCHAR
STARTCHAR u0029
ENCODING 41
SWIDTH 666 0
DWIDTH 8 0
BBX 8 16 0 -4
BITMAP
00
00
00
00
00
30
18
0C
0C
0C
0C
0C
18
30
00
00
ENDCHAR
STARTCHAR u0034
ENCODING 52
SWIDTH 666 0
DWIDTH 8 0
BBX 8 16 0 -4
BITMAP
00
00
00
00
00
0C
1C
3C
6C
CC
FE
0C
0C
1E
00
00
ENDCHAR
STARTCHAR u1EAE
ENCODING 7854
SWIDTH 666 0
DWIDTH 8 0
BBX 8 16 0 -4
BITMAP
00
0C
08
54
38
10
38
6C
C6
C6
FE
C6
C6
C6
00
00
ENDCHAR
STARTCHAR u1ED9
ENCODING 7897
SWIDTH 666 0
DWIDTH 8 0
BBX 8 16 0 -4
BITMAP
00
00
00
00
10
38
44
00
7C
C6
C6
C6
C6
7C
00
18
ENDCHAR
STARTCHAR u002D
ENCODING 45
SWIDTH 666 0
DWIDTH 8 0
BBX 8 16 0 -4
BITMAP
00
00
00
00
00
00
00
00
00
FE
00
00
00
00
00
00
ENDCHAR
STARTCHAR u1EDE
ENCODING 7902
SWIDTH 666 0
DWIDTH 8 0
BBX 8 16 0 -4
BITMAP
00
1C
04
0B
01
7E
C6
C6
C6
C6
C6
C6
C6
7C
00
00
ENDCHAR
STARTCHAR u00ED
ENCODING 237
SWIDTH 666 0
DWIDTH 8 0
BBX 8 16 0 -4
BITMAP
00
00
00
03
02
04
18
00
38
18
18
18
18
3C
00
00
ENDCHAR
STARTCHAR u1EB7
ENCODING 7863
SWIDTH 666 0
DWIDTH 8 0
BBX 8 16 0 -4
BITMAP
00
00
00
00
00
44
38
00
78
0C
7C
CC
CC
76
00
18
ENDCHAR
STARTCHAR u1EF4
ENCODING 7924
SWIDTH 666 0
DWIDTH 8 0
BBX 8 16 0 -4
BITMAP
00
00
00
00
00
66
66
66
66
3C
18
18
18
3C
00
18
ENDCHAR
STARTCHAR u1EE6
ENCODING 7910
SWIDTH 666 0
DWIDTH 8 0
BBX 8 16 0 -4
BITMAP
00
1C
04
08
00
C6
C6
C6
C6
C6
C6
C6
C6
7C
00
00
ENDCHAR
STARTCHAR u0044
ENCODING 68
SWIDTH 666 0
DWIDTH 8 0
BBX 8 16 0 -4
BITMAP
00
00
00
00
00
F8
6C
66
66
66
66
66
6C
F8
00
00
ENDCHAR
STARTCHAR u0001
ENCODING 1
SWIDTH 666 0
DWIDTH 8 0
BBX 8 16 0 -4
BITMAP
00
00
00
00
00
7E
81
A5
81
81
BD
99
81
7E
00
00
ENDCHAR
STARTCHAR u0074
ENCODING 116
SWIDTH 666 0
DWIDTH 8 0
BBX 8 16 0 -4
BITMAP
00
00
00
00
00
10
30
30
FC
30
30
30
36
1C
00
00
ENDCHAR
STARTCHAR u01A0
ENCODING 416
SWIDTH 666 0
DWIDTH 8 0
BBX 8 16 0 -4
BITMAP
00
00
00
03
01
7E
C6
C6
C6
C6
C6
C6
C6
7C
00
00
ENDCHAR
STARTCHAR u1EE1
ENCODING 7905
SWIDTH 666 0
DWIDTH 8 0
BBX 8 16 0 -4
BITMAP
00
00
00
32
4C
00
07
01
7E
C6
C6
C6
C6
7C
00
00
ENDCHAR
STARTCHAR u0064
ENCODING 100
SWIDTH 666 0
DWIDTH 8 0
BBX 8 16 0 -4
BITMAP
00
00
00
00
00
1C
0C
0C
3C
6C
CC
CC
CC
76
00
00
ENDCHAR
STARTCHAR u0078
ENCODING 120
SWIDTH 666 0
DWIDTH 8 0
BBX 8 16 0 -4
BITMAP
00
00
00
00
00
00
00
00
C6
6C
38
38
6C
C6
00
00
ENDCHAR
STARTCHAR u1EE4
ENCODING 7908
SWIDTH 666 0
DWIDTH 8 0
BBX 8 16 0 -4
BITMAP
00
00
00
00
00
C6
C6
C6
C6
C6
C6
C6
C6
7C
00
18
ENDCHAR
STARTCHAR u0053
ENCODING 83
SWIDTH 666 0
DWIDTH 8 0
BBX 8 16 0 -4
BITMAP
00
00
00
00
00
7C
C6
C6
60
38
0C
C6
C6
7C
00
00
ENDCHAR
STARTCHAR u1EAA
ENCODING 7850
SWIDTH 666 0
DWIDTH 8 0
BBX 8 16 0 -4
BITMAP
32
4C
10
38
44
10
38
6C
C6
C6
FE
C6
C6
C6
00
00
ENDCHAR
STARTCHAR u1EB4
ENCODING 7860
SWIDTH 666 0
DWIDTH 8 0
BBX 8 16 0 -4
BITMAP
00
32
4C
44
38
10
38
6C
C6
C6
FE
C6
C6
C6
00
00
ENDCHAR
STARTCHAR u1EF7
ENCODING 7927
SWIDTH 666 0
DWIDTH 8 0
BBX 8 16 0 -4
BITMAP
00
00
00
00
38
08
10
00
C6
C6
C6
C6
7E
06
0C
F8
ENDCHAR
STARTCHAR u00D9
ENCODING 217
SWIDTH 666 0
DWIDTH 8 0
BBX 8 16 0 -4
BITMAP
00
00
30
10
08
C6
C6
C6
C6
C6
C6
C6
C6
7C
00
00
ENDCHAR
STARTCHAR u007A
ENCODING 122
SWIDTH 666 0
DWIDTH 8 0
BBX 8 16 0 -4
BITMAP
00
00
00
00
00
00
00
00
FE
CC
18
30
66
FE
00
00
ENDCHAR
STARTCHAR u00CD
ENCODING 205
SWIDTH 666 0
DWIDTH 8 0
BBX 8 16 0 -4
BITMAP
00
06
04
08
00
3C
18
18
18
18
18
18
18
3C
00
00
ENDCHAR
STARTCHAR u002A
ENCODING 42
SWIDTH 666 0
DWIDTH 8 0
BBX 8 16 0 -4
BITMAP
00
00
00
00
00
00
00
66
3C
FF
3C
66
00
00
00
00
ENDCHAR
STARTCHAR u0016
ENCODING 22
SWIDTH 666 0
DWIDTH 8 0
BBX 8 16 0 -4
BITMAP
00
00
00
00
00
00
00
00
00
00
00
FE
FE
FE
00
00
ENDCHAR
STARTCHAR u002E
ENCODING 46
SWIDTH 666 0
DWIDTH 8 0
BBX 8 16 0 -4
BITMAP
00
00
00
00
00
00
00
00
00
00
00
00
18
18
00
00
ENDCHAR
STARTCHAR u0024
ENCODING 36
SWIDTH 666 0
DWIDTH 8 0
BBX 8 16 0 -4
BITMAP
00
00
00
18
18
7C
C6
C2
C0
7C
06
86
C6
7C
18
18
ENDCHAR
STARTCHAR u00D5
ENCODING 213
SWIDTH 666 0
DWIDTH 8 0
BBX 8 16 0 -4
BITMAP
00
00
00
00
00
00
00
00
78
0C
7C
CC
CC
76
00
18
ENDCHAR
STARTCHAR u005E
ENCODING 94
SWIDTH 666 0
DWIDTH 8 0
BBX 8 16 0 -4
BITMAP
00
00
00
10
38
6C
C6
00
00
00
00
00
00
00
00
00
ENDCHAR
STARTCHAR u0033
ENCODING 51
SWIDTH 666 0
DWIDTH 8 0
BBX 8 16 0 -4
BITMAP
00
00
00
00
00
7C
C6
06
06
3C
06
06
C6
7C
00
00
ENDCHAR
STARTCHAR u0128
ENCODING 296
SWIDTH 666 0
DWIDTH 8 0
BBX 8 16 0 -4
BITMAP
00
00
32
4C
00
3C
18
18
18
18
18
18
18
3C
00
00
ENDCHAR
STARTCHAR u1EC3
ENCODING 7875
SWIDTH 666 0
DWIDTH 8 0
BBX 8 16 0 -4
BITMAP
00
00
07
01
12
38
44
00
7C
C6
FE
C0
C6
7C
00
00
ENDCHAR
STARTCHAR u1EAF
ENCODING 7855
SWIDTH 666 0
DWIDTH 8 0
BBX 8 16 0 -4
BITMAP
00
00
06
04
08
44
38
00
78
0C
7C
CC
CC
76
00
00
ENDCHAR
STARTCHAR u1EA7
ENCODING 7847
SWIDTH 666 0
DWIDTH 8 0
BBX 8 16 0 -4
BITMAP
00
00
00
06
12
39
44
00
78
0C
7C
CC
CC
76
00
00
ENDCHAR
STARTCHAR u1EBC
ENCODING 7868
SWIDTH 666 0
DWIDTH 8 0
BBX 8 16 0 -4
BITMAP
00
00
32
4C
00
FE
66
62
68
78
68
62
66
FE
00
00
ENDCHAR
STARTCHAR u1EF9
ENCODING 7929
SWIDTH 666 0
DWIDTH 8 0
BBX 8 16 0 -4
BITMAP
00
00
00
00
32
4C
00
00
C6
C6
C6
C6
7E
06
0C
F8
ENDCHAR
STARTCHAR u1ED5
ENCODING 7893
SWIDTH 666 0
DWIDTH 8 0
BBX 8 16 0 -4
BITMAP
00
00
07
01
12
38
44
00
7C
C6
C6
C6
C6
7C
00
00
ENDCHAR
STARTCHAR u1EDD
ENCODING 7901
SWIDTH 666 0
DWIDTH 8 0
BBX 8 16 0 -4
BITMAP
00
00
00
60
20
10
07
01
7E
C6
C6
C6
C6
7C
00
00
ENDCHAR
STARTCHAR u1EA1
ENCODING 7841
SWIDTH 666 0
DWIDTH 8 0
BBX 8 16 0 -4
BITMAP
00
00
32
4C
00
7C
C6
C6
C6
C6
C6
C6
C6
7C
00
00
ENDCHAR
STARTCHAR u00C8
ENCODING 200
SWIDTH 666 0
DWIDTH 8 0
BBX 8 16 0 -4
BITMAP
00
00
18
08
04
FE
66
62
68
78
68
62
62
FE
00
00
ENDCHAR
STARTCHAR u0012
ENCODING 18
SWIDTH 666 0
DWIDTH 8 0
BBX 8 16 0 -4
BITMAP
00
00
00
00
00
18
3C
7E
18
18
18
7E
3C
18
00
00
ENDCHAR
STARTCHAR u007D
ENCODING 125
SWIDTH 666 0
DWIDTH 8 0
BBX 8 16 0 -4
BITMAP
00
00
00
00
00
70
18
18
18
0E
18
18
18
70
00
00
ENDCHAR
STARTCHAR u002C
ENCODING 44
SWIDTH 666 0
DWIDTH 8 0
BBX 8 16 0 -4
BITMAP
00
00
00
00
00
00
00
00
00
00
00
18
18
18
30
00
ENDCHAR
STARTCHAR u1EA4
ENCODING 7844
SWIDTH 666 0
DWIDTH 8 0
BBX 8 16 0 -4
BITMAP
00
03
12
3C
44
10
38
6C
C6
C6
FE
C6
C6
C6
00
00
ENDCHAR
STARTCHAR u001B
ENCODING 27
SWIDTH 666 0
DWIDTH 8 0
BBX 8 16 0 -4
BITMAP
00
00
00
00
00
00
00
30
60
FE
60
30
00
00
00
00
ENDCHAR
STARTCHAR u0110
ENCODING 272
SWIDTH 666 0
DWIDTH 8 0
BBX 8 16 0 -4
BITMAP
00
00
00
00
00
F8
6C
66
66
F6
66
66
6C
F8
00
00
ENDCHAR
STARTCHAR u005F
ENCODING 95
SWIDTH 666 0
DWIDTH 8 0
BBX 8 16 0 -4
BITMAP
00
00
00
00
00
00
00
00
00
00
00
00
00
00
00
FF
ENDCHAR
STARTCHAR u1EC9
ENCODING 7881
SWIDTH 666 0
DWIDTH 8 0
BBX 8 16 0 -4
BITMAP
00
00
00
07
01
02
18
00
38
18
18
18
18
3C
00
00
ENDCHAR
STARTCHAR u1EF2
ENCODING 7922
SWIDTH 666 0
DWIDTH 8 0
BBX 8 16 0 -4
BITMAP
00
30
10
08
00
66
66
66
66
3C
18
18
18
3C
00
00
ENDCHAR
STARTCHAR u006D
ENCODING 109
SWIDTH 666 0
DWIDTH 8 0
BBX 8 16 0 -4
BITMAP
00
00
00
00
00
00
00
00
EC
FE
D6
D6
D6
C6
00
00
ENDCHAR
STARTCHAR u1EA8
ENCODING 7848
SWIDTH 666 0
DWIDTH 8 0
BBX 8 16 0 -4
BITMAP
07
01
12
38
44
10
38
6C
C6
C6
FE
C6
C6
C6
00
00
ENDCHAR
STARTCHAR u00F3
ENCODING 243
SWIDTH 666 0
DWIDTH 8 0
BBX 8 16 0 -4
BITMAP
00
00
00
00
06
04
08
00
7C
C6
C6
C6
C6
7C
00
00
ENDCHAR
STARTCHAR u004E
ENCODING 78
SWIDTH 666 0
DWIDTH 8 0
BBX 8 16 0 -4
BITMAP
00
00
00
00
00
C6
E6
F6
FE
DE
CE
C6
C6
C6
00
00
ENDCHAR
STARTCHAR u006A
ENCODING 106
SWIDTH 666 0
DWIDTH 8 0
BBX 8 16 0 -4
BITMAP
00
00
00
00
00
06
06
00
0E
06
06
06
06
66
66
3C
ENDCHAR
STARTCHAR u0041
ENCODING 65
SWIDTH 666 0
DWIDTH 8 0
BBX 8 16 0 -4
BITMAP
00
00
00
00
00
10
38
6C
C6
C6
FE
C6
C6
C6
00
00
ENDCHAR
STARTCHAR u1EF5
ENCODING 7925
SWIDTH 666 0
DWIDTH 8 0
BBX 8 16 0 -4
BITMAP
00
00
00
00
00
00
00
00
C6
C6
C6
C6
7E
06
0C
FB
ENDCHAR
STARTCHAR u0051
ENCODING 81
SWIDTH 666 0
DWIDTH 8 0
BBX 8 16 0 -4
BITMAP
00
00
00
00
00
7C
C6
C6
C6
C6
D6
DE
7C
0C
0E
00
ENDCHAR
STARTCHAR u003C
ENCODING 60
SWIDTH 666 0
DWIDTH 8 0
BBX 8 16 0 -4
BITMAP
00
00
00
00
00
06
0C
18
30
60
30
18
0C
06
00
00
ENDCHAR
STARTCHAR u1EA0
ENCODING 7840
SWIDTH 666 0
DWIDTH 8 0
BBX 8 16 0 -4
BITMAP
00
00
00
00
00
10
38
6C
C6
C6
FE
C6
C6
C6
00
18
ENDCHAR
STARTCHAR u01B0
ENCODING 432
SWIDTH 666 0
DWIDTH 8 0
BBX 8 16 0 -4
BITMAP
00
00
00
00
00
00
03
01
CE
CC
CC
CC
CC
76
00
00
ENDCHAR
STARTCHAR u0056
ENCODING 86
SWIDTH 666 0
DWIDTH 8 0
BBX 8 16 0 -4
BITMAP
00
00
00
00
00
C6
C6
C6
C6
C6
C6
6C
38
10
00
00
ENDCHAR
STARTCHAR u00CC
ENCODING 204
SWIDTH 666 0
DWIDTH 8 0
BBX 8 16 0 -4
BITMAP
00
60
20
10
00
3C
18
18
18
18
18
18
18
3C
00
00
ENDCHAR
STARTCHAR u0011
ENCODING 17
SWIDTH 666 0
DWIDTH 8 0
BBX 8 16 0 -4
BITMAP
00
00
00
00
00
02
06
0E
3E
FE
3E
0E
06
02
00
00
ENDCHAR
STARTCHAR u0052
ENCODING 82
SWIDTH 666 0
DWIDTH 8 0
BBX 8 16 0 -4
BITMAP
00
00
00
00
00
FC
66
66
66
7C
6C
66
66
E6
00
00
ENDCHAR
STARTCHAR u006E
ENCODING 110
SWIDTH 666 0
DWIDTH 8 0
BBX 8 16 0 -4
BITMAP
00
00
00
00
00
00
00
00
DC
66
66
66
66
66
00
00
ENDCHAR
STARTCHAR u1EE0
ENCODING 7904
SWIDTH 666 0
DWIDTH 8 0
BBX 8 16 0 -4
BITMAP
00
32
4C
03
01
7E
C6
C6
C6
C6
C6
C6
C6
7C
00
00
ENDCHAR
STARTCHAR u1EC8
ENCODING 7880
SWIDTH 666 0
DWIDTH 8 0
BBX 8 16 0 -4
BITMAP
00
1C
04
08
00
3C
18
18
18
18
18
18
18
3C
00
00
ENDCHAR
STARTCHAR u0045
ENCODING 69
SWIDTH 666 0
DWIDTH 8 0
BBX 8 16 0 -4
BITMAP
00
00
00
00
00
FE
66
62
68
78
68
62
62
FE
00
00
ENDCHAR
STARTCHAR u0070
ENCODING 112
SWIDTH 666 0
DWIDTH 8 0
BBX 8 16 0 -4
BITMAP
00
00
00
00
00
00
00
00
DC
66
66
66
7C
60
60
F0
ENDCHAR
STARTCHAR u00E0
ENCODING 224
SWIDTH 666 0
DWIDTH 8 0
BBX 8 16 0 -4
BITMAP
00
00
00
00
30
10
08
00
78
0C
7C
CC
CC
76
00
00
ENDCHAR
STARTCHAR u1ECD
ENCODING 7885
SWIDTH 666 0
DWIDTH 8 0
BBX 8 16 0 -4
BITMAP
00
00
00
00
00
00
00
00
7C
C6
C6
C6
C6
7C
00
18
ENDCHAR
STARTCHAR u1EEE
ENCODING 7918
SWIDTH 666 0
DWIDTH 8 0
BBX 8 16 0 -4
BITMAP
00
32
4C
03
01
C6
C6
C6
C6
C6
C6
C6
C6
7C
00
00
ENDCHAR
STARTCHAR u1EE5
ENCODING 7909
SWIDTH 666 0
DWIDTH 8 0
BBX 8 16 0 -4
BITMAP
00
00
00
00
00
00
00
00
CC
CC
CC
CC
CC
76
00
18
ENDCHAR
STARTCHAR u004F
ENCODING 79
SWIDTH 666 0
DWIDTH 8 0
BBX 8 16 0 -4
BITMAP
00
00
00
00
00
7C
C6
C6
C6
C6
C6
C6
C6
7C
00
00
ENDCHAR
STARTCHAR u0079
ENCODING 121
SWIDTH 666 0
DWIDTH 8 0
BBX 8 16 0 -4
BITMAP
00
00
00
00
00
00
00
00
C6
C6
C6
C6
7E
06
0C
F8
ENDCHAR
STARTCHAR u1EE9
ENCODING 7913
SWIDTH 666 0
DWIDTH 8 0
BBX 8 16 0 -4
BITMAP
00
00
00
0C
08
10
03
01
CE
CC
CC
CC
CC
76
00
00
ENDCHAR
STARTCHAR u00D4
ENCODING 212
SWIDTH 666 0
DWIDTH 8 0
BBX 8 16 0 -4
BITMAP
00
00
10
38
44
7C
C6
C6
C6
C6
C6
C6
C6
7C
00
00
ENDCHAR
STARTCHAR u007E
ENCODING 126
SWIDTH 666 0
DWIDTH 8 0
BBX 8 16 0 -4
BITMAP
00
00
00
00
00
76
DC
00
00
00
00
00
00
00
00
00
ENDCHAR
STARTCHAR u1EB5
ENCODING 7861
SWIDTH 666 0
DWIDTH 8 0
BBX 8 16 0 -4
BITMAP
00
00
19
26
00
44
38
00
78
0C
7C
CC
CC
76
00
00
ENDCHAR
STARTCHAR u00FD
ENCODING 253
SWIDTH 666 0
DWIDTH 8 0
BBX 8 16 0 -4
BITMAP
00
00
00
00
0C
08
10
00
C6
C6
C6
C6
7E
06
0C
F8
ENDCHAR
STARTCHAR u1EA5
ENCODING 7845
SWIDTH 666 0
DWIDTH 8 0
BBX 8 16 0 -4
BITMAP
00
00
03
02
14
38
44
00
78
0C
7C
CC
CC
76
00
00
ENDCHAR
STARTCHAR u0075
ENCODING 117
SWIDTH 666 0
DWIDTH 8 0
BBX 8 16 0 -4
BITMAP
00
00
00
00
00
00
00
00
CC
CC
CC
CC
CC
76
00
00
ENDCHAR
STARTCHAR u1EC2
ENCODING 7874
SWIDTH 666 0
DWIDTH 8 0
BBX 8 16 0 -4
BITMAP
0E
02
14
38
44
FE
62
62
68
78
68
62
62
FE
00
00
ENDCHAR
STARTCHAR u0021
ENCODING 33
SWIDTH 666 0
DWIDTH 8 0
BBX 8 16 0 -4
BITMAP
00
00
00
00
00
18
3C
3C
3C
18
18
00
18
18
00
00
ENDCHAR
STARTCHAR u003F
ENCODING 63
SWIDTH 666 0
DWIDTH 8 0
BBX 8 16 0 -4
BITMAP
00
00
00
00
00
7C
C6
C6
0C
18
18
00
18
18
00
00
ENDCHAR
STARTCHAR u0007
ENCODING 7
SWIDTH 666 0
DWIDTH 8 0
BBX 8 16 0 -4
BITMAP
00
00
00
00
00
00
00
00
18
3C
3C
18
00
00
00
00
ENDCHAR
STARTCHAR u0050
ENCODING 80
SWIDTH 666 0
DWIDTH 8 0
BBX 8 16 0 -4
BITMAP
00
00
00
00
00
FC
66
66
66
7C
60
60
60
F0
00
00
ENDCHAR
STARTCHAR u001A
ENCODING 26
SWIDTH 666 0
DWIDTH 8 0
BBX 8 16 0 -4
BITMAP
00
00
00
00
00
00
00
18
0C
FE
0C
18
00
00
00
00
ENDCHAR
STARTCHAR u00E3
ENCODING 227
SWIDTH 666 0
DWIDTH 8 0
BBX 8 16 0 -4
BITMAP
00
00
00
00
00
32
4C
00
78
0C
7C
CC
CC
76
00
00
ENDCHAR
STARTCHAR u1EEF
ENCODING 7919
SWIDTH 666 0
DWIDTH 8 0
BBX 8 16 0 -4
BITMAP
00
00
00
00
32
4C
03
01
CE
CC
CC
CC
CC
76
00
00
ENDCHAR
STARTCHAR u1EE8
ENCODING 7912
SWIDTH 666 0
DWIDTH 8 0
BBX 8 16 0 -4
BITMAP
00
0C
08
17
01
C6
C6
C6
C6
C6
C6
C6
C6
7C
00
00
ENDCHAR
STARTCHAR u0063
ENCODING 99
SWIDTH 666 0
DWIDTH 8 0
BBX 8 16 0 -4
BITMAP
00
00
00
00
00
00
00
00
7C
C6
C0
C0
C6
7C
00
00
ENDCHAR
STARTCHAR u0048
ENCODING 72
SWIDTH 666 0
DWIDTH 8 0
BBX 8 16 0 -4
BITMAP
00
00
00
00
00
C6
C6
C6
C6
FE
C6
C6
C6
C6
00
00
ENDCHAR
STARTCHAR u0129
ENCODING 297
SWIDTH 666 0
DWIDTH 8 0
BBX 8 16 0 -4
BITMAP
00
00
00
32
4C
00
18
00
38
18
18
18
18
3C
00
00
ENDCHAR
STARTCHAR u006C
ENCODING 108
SWIDTH 666 0
DWIDTH 8 0
BBX 8 16 0 -4
BITMAP
00
00
00
00
00
38
18
18
18
18
18
18
18
3C
00
00
ENDCHAR
STARTCHAR u005C
ENCODING 92
SWIDTH 666 0
DWIDTH 8 0
BBX 8 16 0 -4
BITMAP
00
00
00
00
00
80
C0
E0
70
38
1C
0E
06
02
00
00
ENDCHAR
STARTCHAR u00E8
ENCODING 232
SWIDTH 666 0
DWIDTH 8 0
BBX 8 16 0 -4
BITMAP
00
00
00
00
30
10
08
00
7C
C6
FE
C0
C6
7C
00
00
ENDCHAR
STARTCHAR u000A
ENCODING 10
SWIDTH 666 0
DWIDTH 8 0
BBX 8 16 0 -4
BITMAP
00
00
00
FF
FF
FF
FF
C3
99
BD
BD
99
C3
FF
FF
FF
ENDCHAR
STARTCHAR u1ECA
ENCODING 7882
SWIDTH 666 0
DWIDTH 8 0
BBX 8 16 0 -4
BITMAP
00
00
00
00
00
3C
18
18
18
18
18
18
18
3C
00
18
ENDCHAR
STARTCHAR u00E1
ENCODING 225
SWIDTH 666 0
DWIDTH 8 0
BBX 8 16 0 -4
BITMAP
00
00
00
00
0C
08
10
00
78
0C
7C
CC
CC
76
00
00
ENDCHAR
STARTCHAR u1EA6
ENCODING 7846
SWIDTH 666 0
DWIDTH 8 0
BBX 8 16 0 -4
BITMAP
00
06
12
39
44
10
38
6C
C6
C6
FE
C6
C6
C6
00
00
ENDCHAR
STARTCHAR u1EC7
ENCODING 7879
SWIDTH 666 0
DWIDTH 8 0
BBX 8 16 0 -4
BITMAP
00
00
00
00
10
38
44
00
7C
C6
FE
C0
C6
7C
00
18
ENDCHAR
STARTCHAR u0030
ENCODING 48
SWIDTH 666 0
DWIDTH 8 0
BBX 8 16 0 -4
BITMAP
00
00
00
00
00
7C
C6
CE
DE
F6
E6
C6
C6
7C
00
00
ENDCHAR
STARTCHAR u0168
ENCODING 360
SWIDTH 666 0
DWIDTH 8 0
BBX 8 16 0 -4
BITMAP
00
00
32
4C
00
C6
C6
C6
C6
C6
C6
C6
C6
7C
00
00
ENDCHAR
STARTCHAR u1ED2
ENCODING 7890
SWIDTH 666 0
DWIDTH 8 0
BBX 8 16 0 -4
BITMAP
00
00
16
3A
45
7C
C6
C6
C6
C6
C6
C6
C6
7C
00
00
ENDCHAR
STARTCHAR u1ED1
ENCODING 7889
SWIDTH 666 0
DWIDTH 8 0
BBX 8 16 0 -4
BITMAP
00
00
03
02
14
38
44
00
7C
C6
C6
C6
C6
7C
00
00
ENDCHAR
STARTCHAR u007B
ENCODING 123
SWIDTH 666 0
DWIDTH 8 0
BBX 8 16 0 -4
BITMAP
00
00
00
00
00
0E
18
18
18
70
18
18
18
0E
00
00
ENDCHAR
STARTCHAR u0032
ENCODING 50
SWIDTH 666 0
DWIDTH 8 0
BBX 8 16 0 -4
BITMAP
00
00
00
00
00
7C
C6
06
0C
18
30
60
C6
FE
00
00
ENDCHAR
STARTCHAR u1EEB
ENCODING 7915
SWIDTH 666 0
DWIDTH 8 0
BBX 8 16 0 -4
BITMAP
00
00
00
30
10
08
03
01
CE
CC
CC
CC
CC
76
00
00
ENDCHAR
STARTCHAR u00D2
ENCODING 210
SWIDTH 666 0
DWIDTH 8 0
BBX 8 16 0 -4
BITMAP
00
18
08
04
00
7C
C6
C6
C6
C6
C6
C6
C6
7C
00
00
ENDCHAR
STARTCHAR u0102
ENCODING 258
SWIDTH 666 0
DWIDTH 8 0
BBX 8 16 0 -4
BITMAP
00
00
00
44
38
10
38
6C
C6
C6
FE
C6
C6
C6
00
00
ENDCHAR
STARTCHAR u1EB0
ENCODING 7856
SWIDTH 666 0
DWIDTH 8 0
BBX 8 16 0 -4
BITMAP
00
30
10
4C
38
10
38
6C
C6
C6
FE
C6
C6
C6
00
00
ENDCHAR
STARTCHAR u1EB9
ENCODING 7865
SWIDTH 666 0
DWIDTH 8 0
BBX 8 16 0 -4
BITMAP
00
00
00
00
00
00
00
00
7C
C6
FE
C0
C6
7C
00
18
ENDCHAR
STARTCHAR u0038
ENCODING 56
SWIDTH 666 0
DWIDTH 8 0
BBX 8 16 0 -4
BITMAP
00
00
00
00
00
7C
C6
C6
C6
7C
C6
C6
C6
7C
00
00
ENDCHAR
STARTCHAR u0042
ENCODING 66
SWIDTH 666 0
DWIDTH 8 0
BBX 8 16 0 -4
BITMAP
00
00
00
00
00
FC
66
66
66
7C
66
66
66
FC
00
00
ENDCHAR
STARTCHAR u0013
ENCODING 19
SWIDTH 666 0
DWIDTH 8 0
BBX 8 16 0 -4
BITMAP
00
00
00
00
00
66
66
66
66
66
66
00
66
66
00
00
ENDCHAR
STARTCHAR u1EC0
ENCODING 7872
SWIDTH 666 0
DWIDTH 8 0
BBX 8 16 0 -4
BITMAP
00
06
12
39
44
FE
62
62
68
78
68
62
62
FE
00
00
ENDCHAR
STARTCHAR u0036
ENCODING 54
SWIDTH 666 0
DWIDTH 8 0
BBX 8 16 0 -4
BITMAP
00
00
00
00
00
38
60
C0
C0
FC
C6
C6
C6
7C
00
00
ENDCHAR
STARTCHAR u0046
ENCODING 70
SWIDTH 666 0
DWIDTH 8 0
BBX 8 16 0 -4
BITMAP
00
00
00
00
00
FE
66
62
68
78
68
60
60
F0
00
00
ENDCHAR
STARTCHAR u1EAD
ENCODING 7853
SWIDTH 666 0
DWIDTH 8 0
BBX 8 16 0 -4
BITMAP
00
00
00
00
10
38
44
00
78
0C
7C
CC
CC
76
00
18
ENDCHAR
STARTCHAR u1EDF
ENCODING 7903
SWIDTH 666 0
DWIDTH 8 0
BBX 8 16 0 -4
BITMAP
00
00
00
1C
04
08
03
01
7E
C6
C6
C6
C6
7C
00
00
ENDCHAR
STARTCHAR u1ED8
ENCODING 7896
SWIDTH 666 0
DWIDTH 8 0
BBX 8 16 0 -4
BITMAP
00
00
10
38
44
7C
C6
C6
C6
C6
C6
C6
C6
7C
00
18
ENDCHAR
STARTCHAR u0058
ENCODING 88
SWIDTH 666 0
DWIDTH 8 0
BBX 8 16 0 -4
BITMAP
00
00
00
00
00
C6
C6
6C
38
38
38
6C
C6
C6
00
00
ENDCHAR
STARTCHAR u001C
ENCODING 28
SWIDTH 666 0
DWIDTH 8 0
BBX 8 16 0 -4
BITMAP
00
00
00
00
00
00
00
00
C0
C0
C0
FE
00
00
00
00
ENDCHAR
STARTCHAR u004B
ENCODING 75
SWIDTH 666 0
DWIDTH 8 0
BBX 8 16 0 -4
BITMAP
00
00
00
00
00
E6
66
6C
6C
78
6C
6C
66
E6
00
00
ENDCHAR
STARTCHAR u0028
ENCODING 40
SWIDTH 666 0
DWIDTH 8 0
BBX 8 16 0 -4
BITMAP
00
00
00
00
00
0C
18
30
30
30
30
30
18
0C
00
00
ENDCHAR
STARTCHAR u1EB8
ENCODING 7864
SWIDTH 666 0
DWIDTH 8 0
BBX 8 16 0 -4
BITMAP
00
00
00
00
00
FE
66
62
68
78
68
62
62
FE
00
18
ENDCHAR
STARTCHAR u00C0
ENCODING 192
SWIDTH 666 0
DWIDTH 8 0
BBX 8 16 0 -4
BITMAP
00
00
0C
04
02
10
38
6C
C6
C6
FE
C6
C6
C6
00
00
ENDCHAR
STARTCHAR u00FA
ENCODING 250
SWIDTH 666 0
DWIDTH 8 0
BBX 8 16 0 -4
BITMAP
00
00
00
00
0C
08
10
00
CC
CC
CC
CC
CC
76
00
00
ENDCHAR
STARTCHAR u003B
ENCODING 59
SWIDTH 666 0
DWIDTH 8 0
BBX 8 16 0 -4
BITMAP
00
00
00
00
00
00
18
18
00
00
00
18
18
30
00
00
ENDCHAR
STARTCHAR u1EE2
ENCODING 7906
SWIDTH 666 0
DWIDTH 8 0
BBX 8 16 0 -4
BITMAP
00
00
00
03
01
7E
C6
C6
C6
C6
C6
C6
C6
7C
00
18
ENDCHAR
STARTCHAR u1ED3
ENCODING 7891
SWIDTH 666 0
DWIDTH 8 0
BBX 8 16 0 -4
BITMAP
00
00
00
06
12
39
44
00
7C
C6
C6
C6
C6
7C
00
00
ENDCHAR
STARTCHAR u0035
ENCODING 53
SWIDTH 666 0
DWIDTH 8 0
BBX 8 16 0 -4
BITMAP
00
00
00
00
00
FE
C0
C0
C0
FC
06
06
C6
7C
00
00
ENDCHAR
STARTCHAR u1EDC
ENCODING 7900
SWIDTH 666 0
DWIDTH 8 0
BBX 8 16 0 -4
BITMAP
00
60
20
13
01
7E
C6
C6
C6
C6
C6
C6
C6
7C
00
00
ENDCHAR
STARTCHAR u00F5
ENCODING 245
SWIDTH 666 0
DWIDTH 8 0
BBX 8 16 0 -4
BITMAP
00
00
00
00
00
32
4C
00
7C
C6
C6
C6
C6
7C
00
00
ENDCHAR
STARTCHAR u1EA2
ENCODING 7842
SWIDTH 666 0
DWIDTH 8 0
BBX 8 16 0 -4
BITMAP
00
00
0E
02
04
10
38
6C
C6
C6
FE
C6
C6
C6
00
00
ENDCHAR
STARTCHAR u000D
ENCODING 13
SWIDTH 666 0
DWIDTH 8 0
BBX 8 16 0 -4
BITMAP
00
00
00
00
00
3F
33
3F
30
30
30
70
F0
E0
00
00
ENDCHAR
STARTCHAR u0069
ENCODING 105
SWIDTH 666 0
DWIDTH 8 0
BBX 8 16 0 -4
BITMAP
00
00
00
00
00
18
18
00
38
18
18
18
18
3C
00
00
ENDCHAR
STARTCHAR u1ED6
ENCODING 7894
SWIDTH 666 0
DWIDTH 8 0
BBX 8 16 0 -4
BITMAP
32
4C
10
38
44
7C
C6
C6
C6
C6
C6
C6
C6
7C
00
00
ENDCHAR
STARTCHAR u1EDB
ENCODING 7899
SWIDTH 666 0
DWIDTH 8 0
BBX 8 16 0 -4
BITMAP
00
00
00
0C
08
10
07
01
7E
C6
C6
C6
C6
7C
00
00
ENDCHAR
STARTCHAR u0055
ENCODING 85
SWIDTH 666 0
DWIDTH 8 0
BBX 8 16 0 -4
BITMAP
00
00
00
00
00
C6
C6
C6
C6
C6
C6
C6
C6
7C
00
00
ENDCHAR
STARTCHAR u1EAC
ENCODING 7852
SWIDTH 666 0
DWIDTH 8 0
BBX 8 16 0 -4
BITMAP
00
00
10
38
44
10
38
6C
C6
C6
FE
C6
C6
C6
00
18
ENDCHAR
STARTCHAR u0003
ENCODING 3
SWIDTH 666 0
DWIDTH 8 0
BBX 8 16 0 -4
BITMAP
00
00
00
00
00
00
6C
FE
FE
FE
FE
7C
38
10
00
00
ENDCHAR
STARTCHAR u1EB1
ENCODING 7857
SWIDTH 666 0
DWIDTH 8 0
BBX 8 16 0 -4
BITMAP
00
00
60
20
10
44
38
00
78
0C
7C
CC
CC
76
00
00
ENDCHAR
STARTCHAR u1EA9
ENCODING 7849
SWIDTH 666 0
DWIDTH 8 0
BBX 8 16 0 -4
BITMAP
00
00
07
01
12
38
44
00
78
0C
7C
CC
CC
76
00
00
ENDCHAR
STARTCHAR u006F
ENCODING 111
SWIDTH 666 0
DWIDTH 8 0
BBX 8 16 0 -4
BITMAP
00
00
00
00
00
00
00
00
7C
C6
C6
C6
C6
7C
00
00
ENDCHAR
STARTCHAR u0009
ENCODING 9
SWIDTH 666 0
DWIDTH 8 0
BBX 8 16 0 -4
BITMAP
00
00
00
00
00
00
00
3C
66
42
42
66
3C
00
00
00
ENDCHAR
STARTCHAR u0026
ENCODING 38
SWIDTH 666 0
DWIDTH 8 0
BBX 8 16 0 -4
BITMAP
00
00
00
00
00
38
6C
6C
38
76
DC
CC
CC
76
00
00
ENDCHAR
STARTCHAR u0004
ENCODING 4
SWIDTH 666 0
DWIDTH 8 0
BBX 8 16 0 -4
BITMAP
00
00
00
00
00
00
10
38
7C
FE
7C
38
10
00
00
00
ENDCHAR
STARTCHAR u0022
ENCODING 34
SWIDTH 666 0
DWIDTH 8 0
BBX 8 16 0 -4
BITMAP
00
00
00
00
66
66
66
24
00
00
00
00
00
00
00
00
ENDCHAR
STARTCHAR u00F2
ENCODING 242
SWIDTH 666 0
DWIDTH 8 0
BBX 8 16 0 -4
BITMAP
00
00
00
00
30
10
08
00
7C
C6
C6
C6
C6
7C
00
00
ENDCHAR
ENDFONT
